<?xml version="1.0" encoding="iso-8859-1"?>
<!-- Generator: Adobe Illustrator 18.0.0, SVG Export Plug-In . SVG Version: 6.00 Build 0)  -->
<!DOCTYPE svg PUBLIC "-//W3C//DTD SVG 1.1//EN" "http://www.w3.org/Graphics/SVG/1.1/DTD/svg11.dtd">
<svg version="1.1" id="Capa_1" xmlns="http://www.w3.org/2000/svg" xmlns:xlink="http://www.w3.org/1999/xlink" x="0px" y="0px"
	 viewBox="0 0 378.22 378.22" witdh="60" height="60" style="enable-background:new 0 0 378.22 378.22;" xml:space="preserve">
<path style="fill:#41d3bd;" d="M378.22,142.485v126.25c0,14.05-11.39,25.44-25.44,25.44h-24.37v40.88l-39.35-40.88H131.15
	c-14.05,0-25.44-11.39-25.44-25.44v-48.44v-77.81c0-14.05,11.39-25.44,25.44-25.44H272.5h80.28
	C366.83,117.045,378.22,128.435,378.22,142.485z"/>
<path style="fill:#ed6a5a;" d="M272.5,68.605v48.44H131.15c-14.05,0-25.44,11.39-25.44,25.44v77.81H89.15l-2.19,2.28l-37.16,38.6
	v-40.88H25.43c-14.05,0-25.43-11.39-25.43-25.44V68.605c0-14.05,11.38-25.44,25.43-25.44h221.64
	C261.11,43.165,272.5,54.555,272.5,68.605z"/>
<path style="fill:#f4f1bb;" d="M272.5,98.295v18.75H131.15c-14.05,0-25.44,11.39-25.44,25.44v77.81H89.15l-2.19,2.28v-98.84
	c0-14.05,11.39-25.44,25.44-25.44H272.5z"/>
<g>
</g>
<g>
</g>
<g>
</g>
<g>
</g>
<g>
</g>
<g>
</g>
<g>
</g>
<g>
</g>
<g>
</g>
<g>
</g>
<g>
</g>
<g>
</g>
<g>
</g>
<g>
</g>
<g>
</g>
</svg>
